PathFileType	4	(X/Y/Z)	 s02c0103.trc
DataRate	CameraRate	NumFrames	NumMarkers	Units	OrigDataRate	OrigDataStartFrame	OrigNumFrames
200	200	6	50	mm	200	501	2000
Frame#	Time	racr			lacr			c7			jug			rlel			rdr			llel			ldr			s2			lic			ric			lasi			rasi			rpsi			lpsi			rgt			lgt			rth1			rth2			rth3			rth4			rlfc			rmfc			rsh1			rsh2			rsh3			rsh4			rlmal			rmmal			rtoe			rmt5			rmt1			lth1			lth2			lth4			lth3			llfc			lmfc			lsh1			lsh2			lsh3			lsh4			llmal			lmmal			lcal			ltoe			lmt5			SBIKE			LBIKE			RBIKE			
		X1	Y1	Z1	X2	Y2	Z2	X3	Y3	Z3	X4	Y4	Z4	X5	Y5	Z5	X6	Y6	Z6	X7	Y7	Z7	X8	Y8	Z8	X9	Y9	Z9	X10	Y10	Z10	X11	Y11	Z11	X12	Y12	Z12	X13	Y13	Z13	X14	Y14	Z14	X15	Y15	Z15	X16	Y16	Z16	X17	Y17	Z17	X18	Y18	Z18	X19	Y19	Z19	X20	Y20	Z20	X21	Y21	Z21	X22	Y22	Z22	X23	Y23	Z23	X24	Y24	Z24	X25	Y25	Z25	X26	Y26	Z26	X27	Y27	Z27	X28	Y28	Z28	X29	Y29	Z29	X30	Y30	Z30	X31	Y31	Z31	X32	Y32	Z32	X33	Y33	Z33	X34	Y34	Z34	X35	Y35	Z35	X36	Y36	Z36	X37	Y37	Z37	X38	Y38	Z38	X39	Y39	Z39	X40	Y40	Z40	X41	Y41	Z41	X42	Y42	Z42	X43	Y43	Z43	X44	Y44	Z44	X45	Y45	Z45	X46	Y46	Z46	X47	Y47	Z47	X48	Y48	Z48	X49	Y49	Z49	X50	Y50	Z50	
501	2.5050	519.051853	1255.252516	-131.044114	486.890707	1277.853328	-469.144974	500.217447	1298.110621	-305.117622	452.097576	1167.312038	-305.509449	552.428539	988.761026	-67.044088	709.707149	838.011700	-122.054856	497.748975	1001.188335	-551.195525	694.138701	867.738213	-510.697567	-21.044833	1128.986463	-270.638064	116.057171	1140.255190	-434.571156	120.214387	1094.754017	-137.797393	138.141667	1110.597888	-399.938523	168.068176	1073.130094	-176.890719	1.490688	1149.396758	-227.171366	-3.725387	1176.530533	-306.643940	87.368138	1004.037474	-120.832916	58.044355	1072.079950	-469.559762	173.037636	945.210707	-128.598662	240.298552	890.389033	-143.700077	278.369867	814.384122	-130.970503	261.696417	908.218833	-168.704606	327.271231	685.580354	-173.121651	301.035137	669.962884	-278.233411	291.185780	582.159315	-149.023564	270.636609	495.872589	-163.612146	218.361245	429.159427	-152.360274	281.528132	491.839497	-201.155369	152.124091	323.532800	-150.403793	167.619461	335.504074	-233.366208	306.712785	151.569171	-184.867097	206.570500	198.505056	-130.960721	239.209339	193.527267	-236.602853	187.206321	1023.573849	-489.190408	272.118940	1005.594801	-488.829410	287.202653	1034.191725	-470.740571	337.660144	945.568111	-494.688993	425.933752	889.934391	-478.243200	434.629665	861.578534	-371.310104	409.681350	787.452309	-498.142518	392.067318	704.267044	-481.141689	335.308634	634.367612	-487.768686	407.470842	699.901373	-443.705831	269.716149	544.337696	-477.009864	281.503279	541.219423	-398.144052	202.505607	480.603299	-440.289144	489.475196	500.939505	-439.573354	387.963660	465.924097	-504.132947	-126.306857	871.746451	-308.601015	37.245727	86.353499	-514.213977	33.670894	83.074738	-114.664094	
502	2.5100	519.524778	1254.730351	-131.342609	486.744108	1278.086747	-469.352976	500.277552	1298.120960	-305.305776	452.334114	1167.289048	-306.010631	552.375969	988.497786	-66.810978	709.523901	837.899530	-121.863369	497.415111	1001.152413	-550.854924	693.969173	867.866911	-510.573570	-21.003267	1129.248136	-270.799664	116.225774	1140.228303	-434.596023	119.859722	1095.099686	-137.635070	138.634442	1110.705147	-400.139122	167.677790	1073.412363	-176.685846	1.382226	1149.754749	-227.249022	-3.549934	1176.737401	-306.711414	87.149883	1004.289696	-120.646441	58.560694	1071.977184	-469.490117	173.029284	945.942104	-128.747244	240.549192	891.341639	-143.701475	279.000125	815.588770	-130.895812	261.946354	909.354601	-168.620332	328.333962	686.664802	-173.300370	302.039536	671.324232	-278.452430	291.580979	583.456243	-149.318674	269.985299	497.582400	-163.945847	216.884304	431.289764	-152.642123	280.567670	493.492593	-201.777080	149.007896	326.496383	-150.362549	165.023835	338.397953	-233.603849	303.162782	153.899236	-184.849832	203.109802	201.290036	-131.031640	236.177263	196.186901	-236.316619	187.736009	1022.910356	-489.608287	272.229847	1004.280993	-488.865528	287.509394	1032.798564	-470.840810	337.401936	943.847079	-494.701435	425.362456	887.694700	-478.208653	434.307993	859.245759	-371.466583	409.544276	785.038977	-498.139895	392.901443	701.597944	-481.352455	336.815466	631.101556	-487.622260	408.495023	697.389939	-443.917470	272.334072	540.501845	-476.909799	284.412265	537.588823	-397.569238	205.617781	476.219673	-440.141871	492.554481	498.645991	-439.633763	391.216413	462.959541	-504.183051	-126.284966	871.749724	-308.653188	37.257483	86.312904	-514.242757	33.698979	83.078139	-114.634500	
503	2.5150	519.972241	1254.220468	-131.552319	486.734670	1278.339404	-469.445143	500.387462	1298.170380	-305.411785	452.634613	1167.301074	-306.473468	552.340683	988.276532	-66.532687	709.357417	837.819637	-121.630811	497.095193	1001.207496	-550.461396	693.814281	868.012470	-510.445340	-20.921411	1129.547885	-270.974073	116.408591	1140.195043	-434.631161	119.551893	1095.493422	-137.514500	139.065852	1110.727817	-400.237869	167.262968	1073.702476	-176.636510	1.274814	1150.229579	-227.329458	-3.338541	1176.979516	-306.825286	86.949101	1004.634165	-120.441207	58.993403	1071.839796	-469.367279	173.083082	946.620657	-128.852606	240.883766	892.426970	-143.607361	279.567506	816.728094	-130.776195	262.298721	910.528748	-168.372585	329.420138	687.918808	-173.198039	303.092828	672.743083	-278.507700	292.020879	584.933514	-149.565552	269.320438	499.241077	-164.208338	215.480428	433.530385	-152.962583	279.697970	495.064481	-202.114622	146.177678	329.616446	-150.285228	162.097100	341.552394	-233.626606	299.675732	156.592051	-184.755127	199.724338	204.161460	-131.110073	232.787730	199.049842	-236.335818	187.980529	1022.103648	-489.635375	272.355368	1002.924132	-488.923853	287.822572	1031.339287	-470.943881	337.117499	942.055023	-494.696178	424.730683	885.378494	-478.146854	434.026197	856.954314	-371.676749	409.351496	782.501845	-498.191472	393.804522	698.890763	-481.457262	338.361733	627.822504	-487.492440	409.618433	694.747649	-444.077619	274.871240	536.518546	-476.809313	287.121461	533.714565	-397.447125	208.301731	471.859075	-440.270169	495.659192	496.160440	-439.665093	394.436407	459.921853	-504.208963	-126.245108	871.745566	-308.657978	37.269621	86.346398	-514.218020	33.743318	83.165179	-114.694833	
504	2.5200	520.407819	1253.835219	-131.659440	486.837442	1278.702825	-469.394837	500.570591	1298.189719	-305.499351	452.938195	1167.308373	-306.805586	552.331425	988.075260	-66.194533	709.201556	837.677863	-121.396440	496.805721	1001.318732	-550.120975	693.629720	868.166511	-510.288164	-20.749521	1129.874709	-271.202086	116.605352	1140.155412	-434.676628	119.236101	1095.926487	-137.464201	139.381610	1110.636838	-400.080991	166.917675	1074.151750	-176.584562	1.283486	1150.656984	-227.490240	-3.037487	1177.185090	-307.047387	87.464256	1005.382919	-119.426750	59.450249	1071.687788	-469.217644	173.086610	947.448598	-128.584197	241.266189	893.468359	-143.344840	280.217479	818.011505	-130.496836	262.750227	911.804969	-167.892431	330.629446	689.171644	-173.048759	304.161179	674.266247	-278.565357	292.525896	586.262937	-149.714316	268.714391	500.945677	-164.375341	214.122394	435.834473	-153.008533	278.947782	496.657253	-202.315276	143.454352	332.817251	-150.066222	159.521881	344.609039	-233.615614	296.220176	159.194852	-184.769595	196.430979	207.102805	-131.106922	229.505519	201.874988	-236.296094	188.170418	1021.250646	-489.655210	272.458129	1001.505951	-489.002719	288.136392	1029.821440	-471.081782	336.681533	940.135422	-494.446966	424.152983	882.984111	-478.035992	433.803276	854.583762	-371.992219	409.223112	779.927497	-498.141857	394.616535	696.108070	-481.517894	339.891269	624.583222	-487.384981	410.646108	692.141906	-444.246712	277.465403	532.662114	-476.538437	289.736264	529.583073	-397.673353	211.701065	467.382989	-440.040934	498.685249	493.668097	-439.919212	397.632379	456.796020	-504.246090	-126.214063	871.780849	-308.656931	37.259615	86.343855	-514.219488	33.743290	83.155762	-114.723406	
505	2.5250	520.776179	1253.535514	-131.711162	487.022056	1279.066332	-469.339764	501.463446	1298.671750	-306.892835	450.483275	1169.085668	-308.011912	552.325948	987.909854	-65.796715	709.054423	837.532862	-121.213521	496.516616	1001.553754	-549.818329	693.429149	868.342340	-510.122332	-20.567907	1130.243473	-271.337411	116.815788	1140.109408	-434.732483	119.035712	1096.397883	-137.392199	139.843116	1110.571313	-400.126938	166.590389	1074.618274	-176.500217	1.329445	1151.078081	-227.647415	-2.662901	1177.402099	-307.375836	87.360981	1005.915883	-119.203531	59.993216	1071.535546	-469.156808	173.187588	948.197124	-128.879173	241.700822	894.515734	-143.055210	280.916116	819.211590	-130.139654	263.223184	912.976153	-167.443315	331.784403	690.452642	-172.863634	305.315867	675.795356	-278.448795	292.980304	587.725037	-149.741524	268.109215	502.712986	-164.457414	212.774347	438.363011	-153.049882	278.161304	498.311164	-202.414245	140.690089	336.187299	-149.792298	156.921339	347.883562	-233.555930	292.819865	162.213384	-184.839947	193.081521	210.213254	-131.100498	226.396901	204.867225	-236.170844	188.387646	1020.302436	-489.670312	272.545822	1000.051683	-489.102582	288.448948	1028.268299	-471.234314	336.324262	938.203440	-494.484741	423.472538	880.542979	-477.991392	433.612226	852.160994	-372.258869	409.085782	777.259225	-498.124461	395.499455	693.282021	-481.617380	341.397932	621.155452	-487.229964	411.666250	689.438509	-444.393912	280.025945	528.750166	-476.371993	292.520505	525.668435	-397.482883	214.807775	463.031513	-439.918746	501.741792	490.856913	-439.877565	400.798573	453.560149	-504.214308	-126.230523	871.771532	-308.682973	37.265266	86.317205	-514.236812	33.749139	83.156555	-114.706101	
506	2.5300	521.144779	1253.346811	-131.770373	487.276757	1279.476416	-469.210079	501.800578	1298.786251	-306.977190	450.492682	1169.360252	-308.226718	552.403825	987.846780	-65.417800	708.947454	837.447893	-121.020658	496.222604	1001.790222	-549.537055	693.195630	868.540429	-509.967156	-20.327514	1130.609104	-271.604264	117.039628	1140.057031	-434.798786	118.814581	1096.829185	-137.413991	140.456414	1110.492038	-400.324727	166.325810	1075.032627	-176.374281	1.288096	1151.676725	-228.050150	-2.321347	1177.505651	-307.559746	87.263471	1006.490651	-118.928191	60.478428	1071.404962	-469.093161	173.264273	949.024056	-128.445869	242.186672	895.729562	-142.612615	281.687337	820.504729	-129.724372	263.789852	914.376398	-166.792217	333.055513	691.812848	-172.533561	306.493766	677.393178	-278.223613	293.523831	589.260671	-149.668890	267.513180	504.497870	-164.430429	211.389876	440.877032	-152.969064	277.408719	500.121639	-202.449026	138.007263	339.574387	-149.574652	154.145418	351.336306	-233.386446	289.512146	165.203500	-184.684146	189.808613	213.472181	-131.045813	222.880815	208.044910	-236.406500	188.661100	1019.389287	-489.711157	272.643630	998.453689	-489.153265	288.761084	1026.661660	-471.371061	335.978643	936.160461	-494.482911	422.841580	878.059847	-477.932255	433.458515	849.661125	-372.519687	408.951771	774.588207	-498.069068	396.284401	690.423456	-481.753495	342.839915	617.866412	-487.203005	412.708033	686.722925	-444.463417	282.611964	524.721051	-476.123506	295.168213	521.748191	-397.446206	217.937127	458.716298	-439.746195	504.764177	487.957936	-439.969302	403.952936	450.227299	-504.218222	-126.200512	871.749305	-308.583862	37.266459	86.341427	-514.218711	33.742128	83.165837	-114.703642	
